<svg width="293" height="50" viewBox="0 0 293 50" fill="none" xmlns="http://www.w3.org/2000/svg">
<path d="M59.64 40L72.12 12H78.52L91.04 40H84.24L74 15.28H76.56L66.28 40H59.64ZM65.88 34L67.6 29.08H82L83.76 34H65.88ZM102.194 40.32C100.408 40.32 98.8077 39.9733 97.3944 39.28C96.0077 38.5867 94.9277 37.5333 94.1544 36.12C93.381 34.68 92.9944 32.8533 92.9944 30.64V18.48H99.2344V29.72C99.2344 31.5067 99.6077 32.8267 100.354 33.68C101.128 34.5067 102.208 34.92 103.594 34.92C104.554 34.92 105.408 34.72 106.154 34.32C106.901 33.8933 107.488 33.2533 107.914 32.4C108.341 31.52 108.554 30.4267 108.554 29.12V18.48H114.794V40H108.874V34.08L109.954 35.8C109.234 37.2933 108.168 38.4267 106.754 39.2C105.368 39.9467 103.848 40.32 102.194 40.32ZM129.375 40.32C126.842 40.32 124.869 39.68 123.455 38.4C122.042 37.0933 121.335 35.16 121.335 32.6V13.72H127.575V32.52C127.575 33.4267 127.815 34.1333 128.295 34.64C128.775 35.12 129.429 35.36 130.255 35.36C131.242 35.36 132.082 35.0933 132.775 34.56L134.455 38.96C133.815 39.4133 133.042 39.76 132.135 40C131.255 40.2133 130.335 40.32 129.375 40.32ZM118.015 23.76V18.96H132.935V23.76H118.015ZM147.534 40.32C145.241 40.32 143.201 39.84 141.414 38.88C139.654 37.92 138.254 36.6133 137.214 34.96C136.201 33.28 135.694 31.3733 135.694 29.24C135.694 27.08 136.201 25.1733 137.214 23.52C138.254 21.84 139.654 20.5333 141.414 19.6C143.201 18.64 145.241 18.16 147.534 18.16C149.801 18.16 151.827 18.64 153.614 19.6C155.401 20.5333 156.801 21.8267 157.814 23.48C158.827 25.1333 159.334 27.0533 159.334 29.24C159.334 31.3733 158.827 33.28 157.814 34.96C156.801 36.6133 155.401 37.92 153.614 38.88C151.827 39.84 149.801 40.32 147.534 40.32ZM147.534 35.2C148.574 35.2 149.507 34.96 150.334 34.48C151.161 34 151.814 33.32 152.294 32.44C152.774 31.5333 153.014 30.4667 153.014 29.24C153.014 27.9867 152.774 26.92 152.294 26.04C151.814 25.16 151.161 24.48 150.334 24C149.507 23.52 148.574 23.28 147.534 23.28C146.494 23.28 145.561 23.52 144.734 24C143.907 24.48 143.241 25.16 142.734 26.04C142.254 26.92 142.014 27.9867 142.014 29.24C142.014 30.4667 142.254 31.5333 142.734 32.44C143.241 33.32 143.907 34 144.734 34.48C145.561 34.96 146.494 35.2 147.534 35.2Z" fill="#D00202"/>
<path d="M164.825 40V12H175.745C178.198 12 180.292 12.3867 182.025 13.16C183.758 13.9333 185.092 15.0533 186.025 16.52C186.958 17.9867 187.425 19.7333 187.425 21.76C187.425 23.7867 186.958 25.5333 186.025 27C185.092 28.44 183.758 29.5467 182.025 30.32C180.292 31.0933 178.198 31.48 175.745 31.48H167.025L168.825 29.64V40H164.825ZM183.545 40L176.425 29.84H180.705L187.905 40H183.545ZM168.825 30.04L167.025 28.08H175.625C178.185 28.08 180.118 27.5333 181.425 26.44C182.758 25.32 183.425 23.76 183.425 21.76C183.425 19.76 182.758 18.2133 181.425 17.12C180.118 16.0267 178.185 15.48 175.625 15.48H167.025L168.825 13.48V30.04ZM202.768 40.24C200.501 40.24 198.501 39.7733 196.768 38.84C195.061 37.9067 193.728 36.6267 192.768 35C191.834 33.3733 191.368 31.5067 191.368 29.4C191.368 27.2933 191.821 25.4267 192.728 23.8C193.661 22.1733 194.928 20.9067 196.528 20C198.154 19.0667 199.981 18.6 202.008 18.6C204.061 18.6 205.874 19.0533 207.448 19.96C209.021 20.8667 210.248 22.1467 211.128 23.8C212.034 25.4267 212.488 27.3333 212.488 29.52C212.488 29.68 212.474 29.8667 212.448 30.08C212.448 30.2933 212.434 30.4933 212.408 30.68H194.368V27.92H210.408L208.848 28.88C208.874 27.52 208.594 26.3067 208.008 25.24C207.421 24.1733 206.608 23.3467 205.568 22.76C204.554 22.1467 203.368 21.84 202.008 21.84C200.674 21.84 199.488 22.1467 198.448 22.76C197.408 23.3467 196.594 24.1867 196.008 25.28C195.421 26.3467 195.128 27.5733 195.128 28.96V29.6C195.128 31.0133 195.448 32.28 196.088 33.4C196.754 34.4933 197.674 35.3467 198.848 35.96C200.021 36.5733 201.368 36.88 202.888 36.88C204.141 36.88 205.274 36.6667 206.288 36.24C207.328 35.8133 208.234 35.1733 209.008 34.32L211.128 36.8C210.168 37.92 208.968 38.7733 207.528 39.36C206.114 39.9467 204.528 40.24 202.768 40.24ZM229.06 40.24C227.3 40.24 225.686 39.84 224.22 39.04C222.78 38.2133 221.62 37 220.74 35.4C219.886 33.8 219.46 31.8 219.46 29.4C219.46 27 219.873 25 220.7 23.4C221.553 21.8 222.7 20.6 224.14 19.8C225.606 19 227.246 18.6 229.06 18.6C231.14 18.6 232.98 19.0533 234.58 19.96C236.18 20.8667 237.446 22.1333 238.38 23.76C239.313 25.36 239.78 27.24 239.78 29.4C239.78 31.56 239.313 33.4533 238.38 35.08C237.446 36.7067 236.18 37.9733 234.58 38.88C232.98 39.7867 231.14 40.24 229.06 40.24ZM217.82 47.76V18.8H221.5V24.52L221.26 29.44L221.66 34.36V47.76H217.82ZM228.74 36.88C230.1 36.88 231.313 36.5733 232.38 35.96C233.473 35.3467 234.326 34.48 234.94 33.36C235.58 32.2133 235.9 30.8933 235.9 29.4C235.9 27.88 235.58 26.5733 234.94 25.48C234.326 24.36 233.473 23.4933 232.38 22.88C231.313 22.2667 230.1 21.96 228.74 21.96C227.406 21.96 226.193 22.2667 225.1 22.88C224.033 23.4933 223.18 24.36 222.54 25.48C221.926 26.5733 221.62 27.88 221.62 29.4C221.62 30.8933 221.926 32.2133 222.54 33.36C223.18 34.48 224.033 35.3467 225.1 35.96C226.193 36.5733 227.406 36.88 228.74 36.88ZM258.05 40V35.52L257.85 34.68V27.04C257.85 25.4133 257.37 24.16 256.41 23.28C255.477 22.3733 254.063 21.92 252.17 21.92C250.917 21.92 249.69 22.1333 248.49 22.56C247.29 22.96 246.277 23.5067 245.45 24.2L243.85 21.32C244.943 20.44 246.25 19.7733 247.77 19.32C249.317 18.84 250.93 18.6 252.61 18.6C255.517 18.6 257.757 19.3067 259.33 20.72C260.903 22.1333 261.69 24.2933 261.69 27.2V40H258.05ZM251.09 40.24C249.517 40.24 248.13 39.9733 246.93 39.44C245.757 38.9067 244.85 38.1733 244.21 37.24C243.57 36.28 243.25 35.2 243.25 34C243.25 32.8533 243.517 31.8133 244.05 30.88C244.61 29.9467 245.503 29.2 246.73 28.64C247.983 28.08 249.663 27.8 251.77 27.8H258.49V30.56H251.93C250.01 30.56 248.717 30.88 248.05 31.52C247.383 32.16 247.05 32.9333 247.05 33.84C247.05 34.88 247.463 35.72 248.29 36.36C249.117 36.9733 250.263 37.28 251.73 37.28C253.17 37.28 254.423 36.96 255.49 36.32C256.583 35.68 257.37 34.7467 257.85 33.52L258.61 36.16C258.103 37.4133 257.21 38.4133 255.93 39.16C254.65 39.88 253.037 40.24 251.09 40.24ZM268.796 40V18.8H272.636V40H268.796ZM270.716 14.72C269.97 14.72 269.343 14.48 268.836 14C268.356 13.52 268.116 12.9333 268.116 12.24C268.116 11.52 268.356 10.92 268.836 10.44C269.343 9.96 269.97 9.72 270.716 9.72C271.463 9.72 272.076 9.96 272.556 10.44C273.063 10.8933 273.316 11.4667 273.316 12.16C273.316 12.88 273.076 13.4933 272.596 14C272.116 14.48 271.49 14.72 270.716 14.72ZM279.968 40V18.8H283.648V24.56L283.288 23.12C283.875 21.6533 284.861 20.5333 286.248 19.76C287.635 18.9867 289.341 18.6 291.368 18.6V22.32C291.208 22.2933 291.048 22.28 290.888 22.28C290.755 22.28 290.621 22.28 290.488 22.28C288.435 22.28 286.808 22.8933 285.608 24.12C284.408 25.3467 283.808 27.12 283.808 29.44V40H279.968Z" fill="white"/>
<path d="M46.375 24.9974C46.375 36.5032 41.9259 45.8307 36.4375 45.8307M36.4375 4.16406C40.5125 4.16406 44.0147 9.30613 45.5482 16.6641" stroke="#D00202" stroke-width="4" stroke-linecap="round"/>
<path d="M6.625 24.9974C6.625 13.4915 11.0742 4.16406 16.5625 4.16406C22.0508 4.16406 26.5 13.4915 26.5 24.9974C26.5 36.5032 22.0508 45.8307 16.5625 45.8307C12.4875 45.8307 8.98535 40.6886 7.45189 33.3307" stroke="#D00202" stroke-width="4" stroke-linecap="round"/>
<path d="M16.5625 45.8307C22.0508 45.8307 26.5 36.5032 26.5 24.9974C26.5 13.4915 22.0508 4.16406 16.5625 4.16406" stroke="#D00202" stroke-width="4"/>
<path d="M19.875 25C19.875 31.9035 18.3919 37.5 16.5625 37.5C14.7331 37.5 13.25 31.9035 13.25 25C13.25 18.0964 14.7331 12.5 16.5625 12.5C18.3919 12.5 19.875 18.0964 19.875 25Z" stroke="#D00202" stroke-width="3"/>
<path d="M16.5625 4.16406H36.4375" stroke="#D00202" stroke-width="4"/>
<path d="M16.5625 45.8359H36.4375" stroke="#D00202" stroke-width="4"/>
<path d="M19.8763 25H17.668" stroke="#D00202" stroke-width="4" stroke-linecap="round"/>
</svg>
